HIERARCHY
ROOT pelvis
{
	OFFSET 0.00 0.00 0.00
	CHANNELS 6 Xposition Yposition Zposition Xrotation Yrotation Zrotation
	JOINT lfemur
	{
		OFFSET 0.00000 3.26371 0.00000
		CHANNELS 3 Xrotation Yrotation Zrotation
		JOINT ltibia
		{
			OFFSET 0.00000 0.00000 -17.39272
			CHANNELS 3 Xrotation Yrotation Zrotation
			JOINT lfoot
			{
				OFFSET 0.00000 0.00000 -17.72520
				CHANNELS 3 Xrotation Yrotation Zrotation
				JOINT ltoes
				{
					OFFSET 4.21806 0.00000 0.00000
					CHANNELS 3 Xrotation Yrotation Zrotation
				}
			}
		}
	}
	JOINT rfemur
	{
		OFFSET 0.00000 -3.26371 0.00000
		CHANNELS 3 Xrotation Yrotation Zrotation
		JOINT rtibia
		{
			OFFSET 0.00000 0.00000 -17.39272
			CHANNELS 3 Xrotation Yrotation Zrotation
			JOINT rfoot
			{
				OFFSET 0.00000 0.00000 -17.72520
				CHANNELS 3 Xrotation Yrotation Zrotation
				JOINT rtoes
				{
					OFFSET 4.21806 0.00000 0.00000
					CHANNELS 3 Xrotation Yrotation Zrotation
				}
			}
		}
	}
	JOINT thorax
	{
		OFFSET -1.96850 0.00000 6.16593
		CHANNELS 6 Xposition Yposition Zposition Xrotation Yrotation Zrotation
		JOINT head
		{
			OFFSET 0.00000 0.00000 18.21355
			CHANNELS 6 Xposition Yposition Zposition Xrotation Yrotation Zrotation
		}
		JOINT lclavicle
		{
			OFFSET 0.00000 0.00000 15.13875
			CHANNELS 3 Xrotation Yrotation Zrotation
			JOINT lhumerus
			{
				OFFSET 0.00000 7.18963 -1.52650
				CHANNELS 3 Xrotation Yrotation Zrotation
				JOINT lradius
				{
					OFFSET 0.00000 0.00000 -10.12096
					CHANNELS 3 Xrotation Yrotation Zrotation
					JOINT lhand
					{
						OFFSET 0.00000 0.00000 -10.45726
						CHANNELS 3 Xrotation Yrotation Zrotation
					}
				}
			}
		}
		JOINT rclavicle
		{
			OFFSET 0.00000 0.00000 15.13875
			CHANNELS 3 Xrotation Yrotation Zrotation
			JOINT rhumerus
			{
				OFFSET 0.00000 -7.18963 -1.52650
				CHANNELS 3 Xrotation Yrotation Zrotation
				JOINT rradius
				{
					OFFSET 0.00000 0.00000 -10.12096
					CHANNELS 3 Xrotation Yrotation Zrotation
					JOINT rhand
					{
						OFFSET 0.00000 0.00000 -10.45726
						CHANNELS 3 Xrotation Yrotation Zrotation
					}
				}
			}
		}
	}
}
MOTION
Frames: 18
Frame Time: 0.008333
 -78.3830 -2.5471 27.9449 -8.6630 4.1658 -30.3362 62.7511 -43.5158 59.9261 -0.0000 79.2132 0.0000 0.0000 6.1370 -11.5073 0.0000 -23.7220 -0.0000 -15.9575 18.0548 -6.1912 -0.0000 32.2195 0.0000 0.0000 -5.7458 -18.1516 -0.0000 -39.2337 -0.0000 -79.8901 0.5130 33.6773 7.9265 4.2321 -1.2364 -79.0317 -1.5668 51.9340 1.9217 2.5352 33.6471 -17.9974 0.0000 -12.6365 60.9283 -23.7084 14.5087 0.0000 -24.5737 -56.0602 -5.1297 -1.4307 -0.0000 5.1782 -0.0000 -5.2640 -46.3923 28.3562 36.5852 180.0000 -69.9114 156.2971 27.9625 -6.7165 0.0000
 -78.3609 -2.5551 27.9408 -8.6485 4.1676 -30.3793 62.7254 -43.5136 59.8871 -0.0000 79.2595 0.0000 0.0000 6.0902 -11.3870 0.0000 -23.6679 -0.0000 -15.9908 18.1064 -6.1421 -0.0000 32.1140 0.0000 0.0000 -5.4352 -18.2454 0.0000 -39.9246 -0.0000 -79.8736 0.5015 33.6793 7.9293 4.2427 -1.1967 -79.0114 -1.5853 51.9322 1.9009 2.5046 33.6567 -18.0278 0.0000 -12.6479 60.9654 -23.6781 14.5237 -0.0000 -24.6661 -56.1076 -5.3255 -1.3472 0.0000 5.1948 -0.0000 -5.2156 -46.2846 28.4880 36.4309 180.0000 -69.8888 156.4287 28.2615 -6.5737 0.0000
 -78.3385 -2.5750 27.9360 -8.6252 4.1676 -30.3913 62.7125 -43.5095 59.8554 -0.0000 79.3004 0.0000 0.0000 6.0588 -11.3418 0.0000 -23.7933 -0.0000 -15.9959 18.1751 -6.1113 -0.0000 32.0590 0.0000 0.0000 -5.5488 -18.2379 0.0000 -39.5933 -0.0000 -79.8594 0.4871 33.6778 7.9093 4.2396 -1.1800 -78.9939 -1.6021 51.9314 1.8998 2.4775 33.6439 -18.0363 0.0000 -12.6769 61.0186 -23.6690 14.5218 0.0000 -24.6592 -56.0661 -5.2981 -1.3856 -0.0000 5.2138 -0.0000 -5.2088 -46.2206 28.5697 36.5002 180.0000 -69.9919 156.2065 27.7802 -7.1490 0.0000
 -78.3223 -2.5848 27.9338 -8.6091 4.1640 -30.4049 62.6860 -43.5196 59.8243 -0.0000 79.3330 0.0000 0.0000 6.0296 -11.2696 0.0000 -23.8462 -0.0000 -16.0074 18.2242 -6.0411 -0.0000 31.9864 0.0000 0.0000 -5.3978 -18.3160 0.0000 -39.8490 -0.0000 -79.8459 0.4773 33.6780 7.8998 4.2507 -1.1452 -78.9790 -1.6131 51.9310 1.9004 2.4778 33.5927 -18.0633 0.0000 -12.7043 61.0695 -23.6843 14.5448 -0.0000 -24.6633 -55.9369 -5.4187 -1.3599 0.0000 5.2265 -0.0000 -5.2031 -46.1439 28.6518 36.4138 180.0000 -69.9898 156.2702 27.9444 -7.0718 0.0000
 -78.3061 -2.5969 27.9306 -8.5944 4.1614 -30.4162 62.6615 -43.5349 59.7807 -0.0000 79.3629 0.0000 0.0000 6.0095 -11.1862 0.0000 -23.9438 -0.0000 -16.0172 18.2709 -5.9979 -0.0000 31.9456 0.0000 0.0000 -5.4559 -18.3251 0.0000 -39.6616 -0.0000 -79.8317 0.4664 33.6773 7.8909 4.2556 -1.1224 -78.9615 -1.6273 51.9295 1.9019 2.4547 33.5568 -18.0763 0.0000 -12.7270 61.1089 -23.7022 14.5580 0.0000 -24.6319 -55.8762 -5.4182 -1.4025 -0.0000 5.2428 -0.0000 -5.2093 -46.0900 28.7022 36.3912 180.0000 -70.0082 156.2553 27.9099 -7.1626 0.0000
 -78.2900 -2.6077 27.9268 -8.5803 4.1591 -30.4265 62.6408 -43.5528 59.7440 -0.0000 79.3982 0.0000 0.0000 5.9847 -11.1062 0.0000 -24.0239 -0.0000 -16.0298 18.3179 -5.9614 -0.0000 31.8881 0.0000 0.0000 -5.3651 -18.3701 0.0000 -39.8181 -0.0000 -79.8182 0.4563 33.6767 7.8822 4.2618 -1.0978 -78.9460 -1.6392 51.9282 1.9101 2.4494 33.5133 -18.0891 0.0000 -12.7453 61.1445 -23.7285 14.5763 0.0000 -24.6047 -55.8461 -5.4971 -1.4208 -0.0000 5.2565 -0.0000 -5.2160 -46.0314 28.7490 36.3643 180.0000 -70.0242 156.2818 27.9176 -7.2307 0.0000
 -78.2758 -2.6171 27.9228 -8.5695 4.1583 -30.4361 62.6168 -43.5754 59.6979 -0.0000 79.4258 0.0000 0.0000 5.9582 -11.0354 0.0000 -24.1536 -0.0000 -16.0422 18.3549 -5.9355 -0.0000 31.8568 0.0000 -0.0000 -5.3806 -18.3821 0.0000 -39.7310 -0.0000 -79.8052 0.4469 33.6756 7.8765 4.2653 -1.0819 -78.9312 -1.6501 51.9264 1.9175 2.4385 33.4587 -18.0929 0.0000 -12.7615 61.1716 -23.7562 14.5873 0.0000 -24.5529 -55.8463 -5.5328 -1.4596 -0.0000 5.2677 -0.0000 -5.2240 -45.9726 28.7790 36.3336 180.0000 -70.0204 156.3043 27.9442 -7.2637 0.0000
 -78.2615 -2.6264 27.9182 -8.5577 4.1576 -30.4491 62.6045 -43.5930 59.6684 -0.0000 79.4653 0.0000 0.0000 5.9348 -10.9519 0.0000 -24.2315 -0.0000 -16.0608 18.4010 -5.9262 -0.0000 31.7961 0.0000 -0.0000 -5.3294 -18.3925 -0.0000 -39.8239 -0.0000 -79.7931 0.4379 33.6748 7.8691 4.2671 -1.0618 -78.9169 -1.6611 51.9249 1.9345 2.4405 33.4177 -18.0936 0.0000 -12.7764 61.1969 -23.7908 14.5943 0.0000 -24.4824 -55.8986 -5.5884 -1.5027 0.0000 5.2727 -0.0000 -5.2284 -45.9114 28.8030 36.3062 180.0000 -70.0249 156.3980 27.9691 -7.2760 0.0000
 -78.2487 -2.6340 27.9143 -8.5472 4.1586 -30.4641 62.5888 -43.6082 59.6353 -0.0000 79.5001 0.0000 0.0000 5.9167 -10.8629 0.0000 -24.3109 -0.0000 -16.0813 18.4422 -5.9269 -0.0000 31.7410 0.0000 -0.0000 -5.3445 -18.3795 0.0000 -39.7646 -0.0000 -79.7819 0.4299 33.6741 7.8655 4.2696 -1.0452 -78.9036 -1.6724 51.9243 1.9473 2.4488 33.3765 -18.0875 0.0000 -12.7885 61.2166 -23.8227 14.5944 0.0000 -24.4048 -55.9804 -5.5980 -1.5667 -0.0000 5.2736 -0.0000 -5.2323 -45.8507 28.8163 36.2740 180.0000 -70.0260 156.5010 27.9778 -7.2713 0.0000
 -78.2363 -2.6406 27.9103 -8.5364 4.1594 -30.4836 62.5790 -43.6188 59.6132 -0.0000 79.5383 0.0000 0.0000 5.8962 -10.7796 0.0000 -24.3739 -0.0000 -16.1059 18.4833 -5.9365 -0.0000 31.6749 0.0000 0.0000 -5.2993 -18.3704 -0.0000 -39.8499 -0.0000 -79.7713 0.4231 33.6734 7.8637 4.2711 -1.0278 -78.8920 -1.6831 51.9232 1.9557 2.4649 33.3544 -18.0790 0.0000 -12.7988 61.2282 -23.8571 14.5848 0.0000 -24.3224 -56.0707 -5.6269 -1.5937 -0.0000 5.2687 -0.0000 -5.2351 -45.7867 28.8209 36.2408 180.0000 -70.0286 156.6105 27.9970 -7.2959 0.0000
 -78.2257 -2.6452 27.9070 -8.5264 4.1625 -30.5045 62.5645 -43.6325 59.5814 -0.0000 79.5675 0.0000 0.0000 5.8747 -10.6886 0.0000 -24.4443 -0.0000 -16.1294 18.5154 -5.9472 -0.0000 31.6222 0.0000 0.0000 -5.3173 -18.3453 0.0000 -39.7939 -0.0000 -79.7611 0.4175 33.6730 7.8669 4.2748 -1.0143 -78.8809 -1.6930 51.9238 1.9517 2.4786 33.3366 -18.0689 0.0000 -12.8052 61.2342 -23.8826 14.5730 0.0000 -24.2543 -56.1510 -5.5971 -1.6822 0.0000 5.2654 -0.0000 -5.2360 -45.7284 28.8206 36.2039 180.0000 -70.0266 156.7103 28.0079 -7.2648 0.0000
 -78.2148 -2.6486 27.9035 -8.5154 4.1664 -30.5290 62.5517 -43.6391 59.5582 -0.0000 79.6010 0.0000 0.0000 5.8490 -10.6069 0.0000 -24.5026 -0.0000 -16.1585 18.5456 -5.9590 -0.0000 31.5621 0.0000 0.0000 -5.2749 -18.3277 0.0000 -39.8683 -0.0000 -79.7512 0.4131 33.6730 7.8751 4.2776 -0.9990 -78.8716 -1.7042 51.9236 1.9468 2.5027 33.3218 -18.0582 0.0000 -12.8087 61.2337 -23.9083 14.5566 0.0000 -24.1887 -56.2163 -5.5899 -1.6865 0.0000 5.2592 -0.0000 -5.2342 -45.6781 28.8213 36.1680 180.0000 -70.0263 156.7756 28.0019 -7.2985 0.0000
 -78.2048 -2.6506 27.9005 -8.5043 4.1711 -30.5556 62.5366 -43.6439 59.5329 -0.0000 79.6293 0.0000 0.0000 5.8158 -10.5305 0.0000 -24.5449 -0.0000 -16.1891 18.5692 -5.9680 -0.0000 31.5100 0.0000 -0.0000 -5.2756 -18.2952 -0.0000 -39.8412 -0.0000 -79.7420 0.4096 33.6731 7.8869 4.2824 -0.9835 -78.8628 -1.7156 51.9236 1.9334 2.5218 33.3038 -18.0490 0.0000 -12.8093 61.2307 -23.9309 14.5445 0.0000 -24.1367 -56.2528 -5.5741 -1.6917 -0.0000 5.2536 -0.0000 -5.2314 -45.6392 28.8243 36.1331 180.0000 -70.0207 156.8041 28.0015 -7.2994 0.0000
 -78.1952 -2.6511 27.8975 -8.4928 4.1766 -30.5862 62.5183 -43.6478 59.5024 -0.0000 79.6564 0.0000 0.0000 5.7770 -10.4547 0.0000 -24.5843 -0.0000 -16.2229 18.5857 -5.9721 -0.0000 31.4603 0.0000 -0.0000 -5.2356 -18.2677 0.0000 -39.9084 -0.0000 -79.7331 0.4076 33.6736 7.9029 4.2897 -0.9685 -78.8544 -1.7273 51.9233 1.9174 2.5350 33.2931 -18.0406 0.0000 -12.8077 61.2241 -23.9503 14.5363 0.0000 -24.0938 -56.2526 -5.5542 -1.6787 0.0000 5.2502 -0.0000 -5.2260 -45.6157 28.8277 36.1052 180.0000 -70.0180 156.7996 28.0045 -7.3158 0.0000
 -78.1860 -2.6502 27.8949 -8.4808 4.1828 -30.6218 62.5005 -43.6487 59.4723 -0.0000 79.6826 0.0000 0.0000 5.7339 -10.3840 0.0000 -24.6146 -0.0000 -16.2608 18.5966 -5.9734 -0.0000 31.4143 -0.0000 0.0000 -5.2210 -18.2278 -0.0000 -39.9125 -0.0000 -79.7247 0.4071 33.6740 7.9224 4.3007 -0.9538 -78.8463 -1.7392 51.9229 1.9000 2.5389 33.2869 -18.0329 0.0000 -12.8039 61.2165 -23.9670 14.5351 0.0000 -24.0605 -56.2227 -5.5406 -1.6543 -0.0000 5.2487 -0.0000 -5.2187 -45.6106 28.8321 36.0869 180.0000 -70.0129 156.7678 28.0124 -7.3236 0.0000
 -78.1761 -2.6487 27.8924 -8.4645 4.1874 -30.6749 62.4954 -43.6273 59.4738 -0.0000 79.7166 0.0000 0.0000 5.6864 -10.3503 0.0000 -24.6138 -0.0000 -16.3155 18.5992 -5.9704 -0.0000 31.3691 0.0000 -0.0000 -5.1615 -18.1825 0.0000 -40.0162 -0.0000 -79.7172 0.4094 33.6745 7.9442 4.3183 -0.9319 -78.8397 -1.7521 51.9197 1.8823 2.5333 33.2969 -18.0274 0.0000 -12.7948 61.2037 -23.9897 14.5457 -0.0000 -24.0320 -56.1654 -5.5999 -1.5335 -0.0000 5.2449 -0.0000 -5.2055 -45.6294 28.8328 36.0829 180.0000 -70.0028 156.7112 28.0730 -7.3662 0.0000
 -78.1670 -2.6531 27.8896 -8.4132 4.1809 -30.8141 62.5147 -43.5013 59.5484 -0.0000 79.7457 0.0000 0.0000 5.6343 -10.3334 0.0000 -24.5689 -0.0000 -16.4396 18.5458 -5.9309 -0.0000 31.3778 -0.0000 0.0000 -5.1320 -18.0896 0.0000 -40.1375 -0.0000 -79.7128 0.4191 33.6753 7.9420 4.3751 -0.8476 -78.8310 -1.7642 51.9195 1.8411 2.4654 33.2962 -18.0303 0.0000 -12.7547 61.1930 -24.0569 14.6437 0.0000 -23.9920 -56.2034 -5.5892 -1.6289 -0.0000 5.2407 -0.0000 -5.1806 -45.6668 28.8213 36.0679 180.0000 -69.9817 156.6887 28.1050 -7.3349 0.0000
 -78.1625 -2.6478 27.8893 -8.4063 4.1875 -30.8408 62.4773 -43.5225 59.4859 -0.0000 79.7509 0.0000 0.0000 5.6431 -10.2767 0.0000 -24.7179 -0.0000 -16.4625 18.5437 -5.9118 -0.0000 31.3516 0.0000 0.0000 -5.1745 -18.0588 0.0000 -39.9795 -0.0000 -79.7072 0.4203 33.6767 7.9616 4.3851 -0.8566 -78.8252 -1.7758 51.9191 1.8608 2.4775 33.3254 -18.0170 0.0000 -12.7634 61.1896 -24.0619 14.6344 0.0000 -23.9252 -56.1604 -5.5291 -1.6591 0.0000 5.2467 -0.0000 -5.1804 -45.6805 28.8053 36.0849 180.0000 -70.0179 156.7136 28.1599 -7.4161 0.0000
